<svg width="102" height="118" viewBox="0 0 102 118" fill="none" xmlns="http://www.w3.org/2000/svg">
<path fill-rule="evenodd" clip-rule="evenodd" d="M67.0841 19.9478L45.1018 2C45.5273 6.054 43.8591 14.8804 34.4457 20.1101C14.9671 26.9422 1 45.4923 1 67.3045C1 94.9188 23.3858 117.305 51 117.305C78.6142 117.305 101 94.9188 101 67.3045C101 45.3171 86.8077 26.6445 67.0841 19.9478Z" fill="black"/>
<path d="M45.1018 2L45.418 1.6127L44.4779 0.845066L44.6046 2.05219L45.1018 2ZM67.0841 19.9478L66.7678 20.3351L66.8378 20.3922L66.9233 20.4212L67.0841 19.9478ZM34.4457 20.1101L34.6112 20.5819L34.6513 20.5678L34.6885 20.5471L34.4457 20.1101ZM44.7856 2.3873L66.7678 20.3351L67.4003 19.5605L45.418 1.6127L44.7856 2.3873ZM34.6885 20.5471C44.311 15.2013 46.0411 6.15954 45.5991 1.94781L44.6046 2.05219C45.0135 5.94846 43.4071 14.5595 34.2029 19.673L34.6885 20.5471ZM1.5 67.3045C1.5 45.7112 15.3268 27.3459 34.6112 20.5819L34.2802 19.6382C14.6075 26.5385 0.5 45.2734 0.5 67.3045H1.5ZM51 116.805C23.6619 116.805 1.5 94.6426 1.5 67.3045H0.5C0.5 95.1949 23.1096 117.805 51 117.805V116.805ZM100.5 67.3045C100.5 94.6426 78.3381 116.805 51 116.805V117.805C78.8904 117.805 101.5 95.1949 101.5 67.3045H100.5ZM66.9233 20.4212C86.4503 27.0512 100.5 45.5378 100.5 67.3045H101.5C101.5 45.0965 87.1651 26.2378 67.2448 19.4743L66.9233 20.4212Z" fill="black"/>
<path d="M75.4406 105.938C62.4106 117.168 50.7134 110.617 46.4936 105.938C46.3701 103.623 49.1696 104.974 50.5848 105.938C58.7054 111.979 68.1202 108.455 71.8126 105.938C75.8266 104.262 75.9038 105.24 75.4406 105.938Z" fill="white"/>
<path d="M71.2281 98.8183C67.4437 91.3882 61.234 96.1971 58.8441 98.8183C58.844 100.016 53.621 100.939 56.7289 97.2973C59.8495 93.6405 64.5105 92.6589 66.8053 92.7991C68.9846 92.9501 72.2883 94.1425 73.3434 97.0385C74.3102 99.6921 71.6237 99.595 71.2281 98.8183Z" fill="white"/>
<path d="M94.8318 78.0968C94.8318 77.3563 92.1745 72.781 92.1745 72.781C89.4505 70.0085 86.4984 72.023 84.8458 73.0544C71.6783 86.2248 56.673 78.542 50.8164 73.0544C47.1808 70.2511 37.6885 66.8183 28.8043 75.5139C19.9202 84.2095 25.1026 92.3075 28.8043 95.2695C35.7451 99.7125 42.0512 95.6662 43.6377 95.2695C44.9068 94.9521 55.5625 88.6578 60.7317 85.5504C65.3642 82.795 70.6735 84.4023 72.7491 85.5504C75.2478 89.5835 81.7126 97.1974 87.5825 95.3885C93.4523 93.5795 94.7657 83.0158 94.8318 78.0968Z" fill="white" stroke="black"/>
</svg>
